<?xml version="1.0" encoding="UTF-8" standalone="no"?>
<svg
   xmlns:dc="http://purl.org/dc/elements/1.1/"
   xmlns:cc="http://creativecommons.org/ns#"
   xmlns:rdf="http://www.w3.org/1999/02/22-rdf-syntax-ns#"
   xmlns:svg="http://www.w3.org/2000/svg"
   xmlns="http://www.w3.org/2000/svg"
   xmlns:sodipodi="http://sodipodi.sourceforge.net/DTD/sodipodi-0.dtd"
   xmlns:inkscape="http://www.inkscape.org/namespaces/inkscape"
   version="1.1"
   id="Capa_1"
   x="0px"
   y="0px"
   viewBox="0 0 29.536 29.536"
   style="enable-background:new 0 0 29.536 29.536;"
   xml:space="preserve"
   sodipodi:docname="question.svg"
   inkscape:version="1.0.1 (0767f8302a, 2020-10-17)"><metadata
   id="metadata1005"><rdf:RDF><cc:Work
       rdf:about=""><dc:format>image/svg+xml</dc:format><dc:type
         rdf:resource="http://purl.org/dc/dcmitype/StillImage" /></cc:Work></rdf:RDF></metadata><defs
   id="defs1003" /><sodipodi:namedview
   pagecolor="#ffffff"
   bordercolor="#666666"
   borderopacity="1"
   objecttolerance="10"
   gridtolerance="10"
   guidetolerance="10"
   inkscape:pageopacity="0"
   inkscape:pageshadow="2"
   inkscape:window-width="850"
   inkscape:window-height="480"
   id="namedview1001"
   showgrid="false"
   inkscape:zoom="8.3589409"
   inkscape:cx="14.768"
   inkscape:cy="14.768"
   inkscape:window-x="0"
   inkscape:window-y="36"
   inkscape:window-maximized="0"
   inkscape:current-layer="Capa_1" />
<g
   id="g968"
   style="fill:#f9f9f9">
	<path
   d="M14.768,0C6.611,0,0,6.609,0,14.768c0,8.155,6.611,14.767,14.768,14.767s14.768-6.612,14.768-14.767   C29.535,6.609,22.924,0,14.768,0z M14.768,27.126c-6.828,0-12.361-5.532-12.361-12.359c0-6.828,5.533-12.362,12.361-12.362   c6.826,0,12.359,5.535,12.359,12.362C27.127,21.594,21.594,27.126,14.768,27.126z"
   id="path932"
   style="fill:#f9f9f9" />
	<path
   d="M14.385,19.337c-1.338,0-2.289,0.951-2.289,2.34c0,1.336,0.926,2.339,2.289,2.339c1.414,0,2.314-1.003,2.314-2.339   C16.672,20.288,15.771,19.337,14.385,19.337z"
   id="path934"
   style="fill:#f9f9f9" />
	<path
   d="M14.742,6.092c-1.824,0-3.34,0.513-4.293,1.053l0.875,2.804c0.668-0.462,1.697-0.772,2.545-0.772   c1.285,0.027,1.879,0.644,1.879,1.543c0,0.85-0.67,1.697-1.494,2.701c-1.156,1.364-1.594,2.701-1.516,4.012l0.025,0.669h3.42   v-0.463c-0.025-1.158,0.387-2.162,1.311-3.215c0.979-1.08,2.211-2.366,2.211-4.321C19.705,7.968,18.139,6.092,14.742,6.092z"
   id="path936"
   style="fill:#f9f9f9" />
	<g
   id="g938"
   style="fill:#f9f9f9">
	</g>
	<g
   id="g940"
   style="fill:#f9f9f9">
	</g>
	<g
   id="g942"
   style="fill:#f9f9f9">
	</g>
	<g
   id="g944"
   style="fill:#f9f9f9">
	</g>
	<g
   id="g946"
   style="fill:#f9f9f9">
	</g>
	<g
   id="g948"
   style="fill:#f9f9f9">
	</g>
	<g
   id="g950"
   style="fill:#f9f9f9">
	</g>
	<g
   id="g952"
   style="fill:#f9f9f9">
	</g>
	<g
   id="g954"
   style="fill:#f9f9f9">
	</g>
	<g
   id="g956"
   style="fill:#f9f9f9">
	</g>
	<g
   id="g958"
   style="fill:#f9f9f9">
	</g>
	<g
   id="g960"
   style="fill:#f9f9f9">
	</g>
	<g
   id="g962"
   style="fill:#f9f9f9">
	</g>
	<g
   id="g964"
   style="fill:#f9f9f9">
	</g>
	<g
   id="g966"
   style="fill:#f9f9f9">
	</g>
</g>
<g
   id="g970">
</g>
<g
   id="g972">
</g>
<g
   id="g974">
</g>
<g
   id="g976">
</g>
<g
   id="g978">
</g>
<g
   id="g980">
</g>
<g
   id="g982">
</g>
<g
   id="g984">
</g>
<g
   id="g986">
</g>
<g
   id="g988">
</g>
<g
   id="g990">
</g>
<g
   id="g992">
</g>
<g
   id="g994">
</g>
<g
   id="g996">
</g>
<g
   id="g998">
</g>
</svg>
