<?xml version="1.0" encoding="UTF-8" standalone="no"?>
<svg
   xmlns:dc="http://purl.org/dc/elements/1.1/"
   xmlns:cc="http://creativecommons.org/ns#"
   xmlns:rdf="http://www.w3.org/1999/02/22-rdf-syntax-ns#"
   xmlns:svg="http://www.w3.org/2000/svg"
   xmlns="http://www.w3.org/2000/svg"
   xmlns:sodipodi="http://sodipodi.sourceforge.net/DTD/sodipodi-0.dtd"
   xmlns:inkscape="http://www.inkscape.org/namespaces/inkscape"
   width="24"
   height="24"
   viewBox="0 0 24 24"
   fill="none"
   version="1.1"
   id="svg835"
   sodipodi:docname="round-tool.svg"
   inkscape:version="1.0.1 (0767f8302a, 2020-10-17)">
  <metadata
     id="metadata841">
    <rdf:RDF>
      <cc:Work
         rdf:about="">
        <dc:format>image/svg+xml</dc:format>
        <dc:type
           rdf:resource="http://purl.org/dc/dcmitype/StillImage" />
      </cc:Work>
    </rdf:RDF>
  </metadata>
  <defs
     id="defs839">
    <inkscape:path-effect
       effect="bspline"
       id="path-effect845"
       is_visible="true"
       lpeversion="1"
       weight="33.333333"
       steps="2"
       helper_size="0"
       apply_no_weight="true"
       apply_with_weight="true"
       only_selected="false" />
  </defs>
  <sodipodi:namedview
     pagecolor="#ffffff"
     bordercolor="#666666"
     borderopacity="1"
     objecttolerance="10"
     gridtolerance="10"
     guidetolerance="10"
     inkscape:pageopacity="0"
     inkscape:pageshadow="2"
     inkscape:window-width="1360"
     inkscape:window-height="700"
     id="namedview837"
     showgrid="false"
     inkscape:zoom="21.29745"
     inkscape:cx="9.5936086"
     inkscape:cy="12"
     inkscape:window-x="0"
     inkscape:window-y="36"
     inkscape:window-maximized="1"
     inkscape:current-layer="svg835" />
  <path
     style="fill:#ffffff;stroke:#ffffff;stroke-width:1px;stroke-linecap:butt;stroke-linejoin:miter;stroke-opacity:1"
     d="m 12.168995,2.8310916 c -0.598449,0.00206 -0.672801,0.00206 -2.3211084,0.8831347 C 8.1995793,4.5953042 4.9780956,6.3575802 3.8227565,8.3117811 2.6674174,10.265982 3.578087,12.410589 4.26012,14.148875 c 0.6820331,1.738286 1.1354969,3.070161 1.6599101,4.033392 0.5244132,0.963232 1.1191515,1.55797 1.8863253,1.917526 0.7671739,0.359556 1.7066201,0.484764 2.8207436,0.460817 1.114123,-0.02395 2.403115,-0.196781 3.628655,-0.775059 1.225541,-0.578278 2.388319,-1.561994 3.260681,-3.214196 0.872362,-1.652202 1.454529,-3.973558 1.757612,-5.43474 C 19.577129,9.6754327 19.600975,9.0742408 19.235633,8.0822848 18.87029,7.0903288 18.115102,5.7074464 17.346466,4.765342 16.577829,3.8232376 15.795279,3.3224051 14.842625,3.0736649 13.889971,2.8249247 12.767443,2.8290348 12.168995,2.8310916 Z"
     id="path843"
     inkscape:path-effect="#path-effect845"
     inkscape:original-d="m 11.643896,2.8331485 c -0.07335,10e-4 -0.147702,10e-4 -0.223053,0 C 8.2002307,4.596495 4.978747,6.358771 1.7561989,8.1200822 c 0.9117059,2.1456928 1.8223753,4.2902998 2.732063,6.4339488 0.454482,1.332929 0.9079458,2.664804 1.3604187,3.995705 0.5957623,0.595763 1.1905008,1.190501 1.7842512,1.784251 0.9404839,0.126214 1.8799301,0.251422 2.8183952,0.375632 1.290044,-0.171841 2.579036,-0.344676 3.867054,-0.518514 1.163824,-0.982756 2.326602,-1.966472 3.488403,-2.951208 0.58319,-2.320449 1.165357,-4.641805 1.746536,-6.964208 C 19.57816,9.6754736 19.60201,9.0742818 19.62486,8.472078 18.870637,7.0901395 18.11545,5.7072563 17.359248,4.3233455 16.577666,3.823493 15.795115,3.3226606 15.011549,2.8208182 c -1.121574,0.00511 -2.244102,0.00922 -3.367653,0.01233 z" />
  <path
     fill-rule="evenodd"
     clip-rule="evenodd"
     d="m12 24c6.6274 0 12-5.3726 12-12 0-6.62742-5.3726-12-12-12-6.62742 0-12 5.37258-12 12 0 6.6274 5.37258 12 12 12zm-2.57413-17.6913.00673-.00444c.02404.01648.0674.06721.0674.15886v2.81905c0 .5798.28717 1.12193.7668 1.44773l.75.5093c.5935.4031 1.3729.4031 1.9664 0l.75-.5093c.4796-.3258.7668-.86793.7668-1.44773v-2.81905c0-.09165.0434-.14238.0674-.15886.0011.00068.0023.00144.0036.0023.001.00066.002.00137.0031.00214 1.1659.8147 1.9259 2.16445 1.9259 3.6916 0 1.5978-.8321 3.0017-2.0902 3.8012-.5176.3289-.9284.9233-.9014 1.6406l.1634 3.3448c.0203.4137.372.7327.7858.7124.4137-.0202.7327-.372.7124-.7857l-.1627-3.3305c-.0021-.0842.0494-.2154.207-.3156 1.6729-1.0631 2.7857-2.935 2.7857-5.0672 0-2.03768-1.0165-3.83785-2.5667-4.92113-.5491-.38376-1.1928-.34681-1.673-.03928-.4619.29578-.7603.82708-.7603 1.42323v2.81905c0 .08283-.041.16028-.1096.20681l-.75.50934c-.0847.05758-.1961.05758-.2808 0l-.75-.50934c-.0686-.04653-.1096-.12399-.1096-.20681v-2.81905c0-.59615-.2984-1.12745-.7603-1.42323-.48016-.30753-1.12387-.34448-1.67304.03928-1.55018 1.08328-2.56666 2.88345-2.56666 4.92113 0 2.1322 1.11278 4.0041 2.78571 5.0672.15762.1002.20905.2314.20704.3156l-.1628 3.3305c-.02022.4137.29877.7655.71249.7857.41372.0203.76546-.2987.78576-.7124l.1631-3.3364.0003-.0084c.027-.7173-.3838-1.3117-.90136-1.6406-1.25809-.7995-2.09024-2.2034-2.09024-3.8012 0-1.52715.76004-2.8769 1.92587-3.6916z"
     fill="#0366d6"
     id="path833" />
</svg>
