<svg data-v-423bf9ae="" xmlns="http://www.w3.org/2000/svg" viewBox="0 0 319 90" class="iconLeft"><!----><!----><!----><g data-v-423bf9ae="" id="e56f4121-41ad-4354-8dfa-8b9b07092075" fill="white" transform="matrix(6.14754083944053,0,0,6.14754083944053,107.41803265982632,13.21721117690634)"><path d="M2.04 3.56C2.04 2.79 2.60 2.37 3.51 2.37C4.23 2.37 5.17 2.62 6.23 3.16C6.78 3.44 6.69 1.93 6.20 1.69C5.35 1.25 4.41 1.02 3.53 1.02C1.85 1.02 0.42 1.88 0.42 3.68C0.42 5.52 1.90 5.82 3.21 6.10C4.26 6.31 5.19 6.51 5.19 7.43C5.19 8.20 4.56 8.64 3.57 8.64C2.84 8.64 1.90 8.40 0.88 7.88C0.31 7.59 0.39 9.14 0.91 9.38C1.78 9.81 2.74 10.05 3.64 10.05C5.38 10.05 6.85 9.20 6.85 7.41C6.85 5.39 5.32 5.08 3.99 4.83C2.95 4.63 2.04 4.47 2.04 3.56ZM8.99 2.31C9.55 2.31 9.94 1.92 9.94 1.29C9.94 0.70 9.55 0.29 8.99 0.29C8.40 0.29 8.02 0.70 8.02 1.29C8.02 1.92 8.40 2.31 8.99 2.31ZM10.14 8.51C10.09 8.53 10.05 8.54 10.01 8.54C9.87 8.54 9.80 8.43 9.80 8.25L9.80 3.56C9.80 2.90 8.15 3.58 8.15 4.26L8.15 8.65C8.15 9.63 8.62 10.04 9.25 10.04C9.53 10.04 9.84 9.97 10.14 9.83C10.72 9.53 10.72 8.26 10.14 8.51ZM14.87 8.48C14.60 8.57 14.38 8.62 14.21 8.62C13.83 8.62 13.68 8.36 13.68 7.76L13.68 0.71C13.68 0.04 12.04 0.74 12.04 1.41L12.04 8.15C12.04 9.56 12.73 10.05 13.59 10.05C14 10.05 14.43 9.94 14.87 9.79C15.47 9.52 15.46 8.26 14.87 8.48ZM15.30 3.78C16.10 6.10 17.72 9.39 18.27 9.87C18.54 10.09 19.04 10.09 19.32 9.87C19.87 9.39 21.49 6.10 22.29 3.78C22.47 3.26 20.69 3.29 20.54 3.78C20.08 5.29 19.53 6.62 18.80 8.02C18.05 6.62 17.51 5.29 17.04 3.78C16.90 3.29 15.12 3.26 15.30 3.78ZM29.04 6.23C29.04 4.38 28.01 3.37 25.97 3.37C23.84 3.37 22.74 4.66 22.74 6.66C22.74 9.04 24.46 10.04 26.18 10.04C26.96 10.04 27.71 9.83 28.35 9.42C28.74 9.17 28.74 8.02 28.22 8.25C27.51 8.57 26.89 8.75 26.31 8.75C25.33 8.75 24.42 8.27 24.39 7.28C24.77 7.34 25.19 7.36 25.56 7.36C27.33 7.36 29.04 6.89 29.04 6.23ZM24.42 6.10C24.43 5.03 25.14 4.62 26.04 4.62C27.02 4.62 27.54 5.08 27.54 5.77C27.54 5.98 26.63 6.16 25.47 6.16C25.13 6.16 24.78 6.15 24.42 6.10ZM34.08 3.43C32.98 3.46 32.17 3.88 31.64 4.54L31.43 3.68C31.33 3.29 30.00 3.28 30.00 3.81L30.00 9.63C30.00 10.19 31.65 10.19 31.65 9.63L31.65 5.94C32.30 5.25 32.96 5.04 33.77 5.00C34.26 4.98 34.59 3.42 34.08 3.43Z"></path></g><!----><g data-v-423bf9ae="" id="8abbe130-8adc-4918-ba21-7ec7fa1f0c5b" transform="matrix(2.8125,0,0,2.8125,0,0)" stroke="none" fill="white"><path d="M16 1c8.271 0 15 6.729 15 15s-6.729 15-15 15S1 24.271 1 16 7.729 1 16 1m0-1C7.163 0 0 7.163 0 16s7.163 16 16 16 16-7.163 16-16S24.837 0 16 0z"></path><path d="M16 7.045L24.955 16 16 24.955 7.045 16 16 7.045m0-1.414L5.631 16 16 26.369 26.369 16 16 5.631z"></path></g><!----></svg>