<?xml version="1.0" encoding="UTF-8" standalone="no"?>
<svg
   xmlns:dc="http://purl.org/dc/elements/1.1/"
   xmlns:cc="http://creativecommons.org/ns#"
   xmlns:rdf="http://www.w3.org/1999/02/22-rdf-syntax-ns#"
   xmlns:svg="http://www.w3.org/2000/svg"
   xmlns="http://www.w3.org/2000/svg"
   xmlns:sodipodi="http://sodipodi.sourceforge.net/DTD/sodipodi-0.dtd"
   xmlns:inkscape="http://www.inkscape.org/namespaces/inkscape"
   data-v-423bf9ae=""
   viewBox="0 0 90 90"
   class="iconLeft"
   version="1.1"
   id="svg994"
   sodipodi:docname="default--logo-white.svg"
   inkscape:version="1.0.1 (0767f8302a, 2020-10-17)"
   width="90"
   height="90">
  <metadata
     id="metadata1000">
    <rdf:RDF>
      <cc:Work
         rdf:about="">
        <dc:format>image/svg+xml</dc:format>
        <dc:type
           rdf:resource="http://purl.org/dc/dcmitype/StillImage" />
        <dc:title></dc:title>
      </cc:Work>
    </rdf:RDF>
  </metadata>
  <defs
     id="defs998" />
  <sodipodi:namedview
     pagecolor="#ffffff"
     bordercolor="#666666"
     borderopacity="1"
     objecttolerance="10"
     gridtolerance="10"
     guidetolerance="10"
     inkscape:pageopacity="0"
     inkscape:pageshadow="2"
     inkscape:window-width="1360"
     inkscape:window-height="700"
     id="namedview996"
     showgrid="false"
     inkscape:zoom="1.5594545"
     inkscape:cx="160.20649"
     inkscape:cy="14.243544"
     inkscape:window-x="0"
     inkscape:window-y="36"
     inkscape:window-maximized="1"
     inkscape:current-layer="svg994" />
  <!---->
  <!---->
  <!---->
  <g
     data-v-423bf9ae=""
     id="e56f4121-41ad-4354-8dfa-8b9b07092075"
     fill="#ffffff"
     transform="matrix(6.1475408,0,0,6.1475408,107.41803,13.217211)" />
  <!---->
  <g
     data-v-423bf9ae=""
     id="8abbe130-8adc-4918-ba21-7ec7fa1f0c5b"
     transform="scale(2.8125)"
     stroke="none"
     fill="#ffffff">
    <path
       d="M 16,1 C 24.271,1 31,7.729 31,16 31,24.271 24.271,31 16,31 7.729,31 1,24.271 1,16 1,7.729 7.729,1 16,1 M 16,0 C 7.163,0 0,7.163 0,16 0,24.837 7.163,32 16,32 24.837,32 32,24.837 32,16 32,7.163 24.837,0 16,0 Z"
       id="path989" />
    <path
       d="M 16,7.045 24.955,16 16,24.955 7.045,16 16,7.045 M 16,5.631 5.631,16 16,26.369 26.369,16 Z"
       id="path991" />
  </g>
  <!---->
</svg>
